<?xml version="1.0" encoding="UTF-8" standalone="no"?>
<svg
   xmlns:dc="http://purl.org/dc/elements/1.1/"
   xmlns:cc="http://creativecommons.org/ns#"
   xmlns:rdf="http://www.w3.org/1999/02/22-rdf-syntax-ns#"
   xmlns:svg="http://www.w3.org/2000/svg"
   xmlns="http://www.w3.org/2000/svg"
   xmlns:sodipodi="http://sodipodi.sourceforge.net/DTD/sodipodi-0.dtd"
   xmlns:inkscape="http://www.inkscape.org/namespaces/inkscape"
   width="12.16396mm"
   height="12.163944mm"
   viewBox="0 0 12.16396 12.163944"
   version="1.1"
   id="svg7182"
   inkscape:version="1.0.1 (3bc2e813f5, 2020-09-07)"
   sodipodi:docname="facebook.svg">
  <defs
     id="defs7176" />
  <sodipodi:namedview
     id="base"
     pagecolor="#ffffff"
     bordercolor="#666666"
     borderopacity="1.0"
     inkscape:pageopacity="0.0"
     inkscape:pageshadow="2"
     inkscape:zoom="0.35"
     inkscape:cx="1757.2727"
     inkscape:cy="540.12984"
     inkscape:document-units="mm"
     inkscape:current-layer="layer1"
     inkscape:document-rotation="0"
     showgrid="false"
     inkscape:window-width="1728"
     inkscape:window-height="1014"
     inkscape:window-x="188"
     inkscape:window-y="32"
     inkscape:window-maximized="0" />
  <metadata
     id="metadata7179">
    <rdf:RDF>
      <cc:Work
         rdf:about="">
        <dc:format>image/svg+xml</dc:format>
        <dc:type
           rdf:resource="http://purl.org/dc/dcmitype/StillImage" />
        <dc:title></dc:title>
      </cc:Work>
    </rdf:RDF>
  </metadata>
  <g
     inkscape:label="Layer 1"
     inkscape:groupmode="layer"
     id="layer1"
     transform="translate(359.11174,-5.2573137)">
    <path
       style="fill:#751e7f;fill-opacity:1;fill-rule:nonzero;stroke:none;stroke-width:0.352777"
       d="m -351.34371,8.866396 c 0,0.049609 -0.0386,0.092329 -0.091,0.092329 h -0.73036 c -0.18052,0 -0.32519,0.1446938 -0.32519,0.3238389 v 0.7661891 h 1.04179 c 0.0523,0 0.0951,0.04548 0.0909,0.09784 l -0.0909,1.080382 c -0.004,0.04547 -0.0469,0.08406 -0.0923,0.08406 h -0.94946 v 3.580143 c 0,0.05374 -0.0414,0.09233 -0.091,0.09233 h -1.30913 c -0.0523,0 -0.0923,-0.03858 -0.0923,-0.09233 v -3.580144 h -0.65595 c -0.0496,0 -0.091,-0.04272 -0.091,-0.09095 v -1.080383 c 0,-0.05236 0.0414,-0.09095 0.091,-0.09095 h 0.65595 V 9.0069562 c 0,-0.7262263 0.58565,-1.3118926 1.31325,-1.3118926 h 1.23473 c 0.0524,0 0.091,0.038585 0.091,0.092328 z m -1.68536,-3.6090823 c -3.35552,0 -6.08267,2.7271379 -6.08267,6.0826613 0,3.354145 2.72715,6.081283 6.08267,6.081283 3.35414,0 6.08129,-2.727138 6.08129,-6.081283 0,-3.3555234 -2.72715,-6.0826613 -6.08129,-6.0826613"
       id="path4709" />
  </g>
</svg>
