<?xml version="1.0" encoding="UTF-8" standalone="no"?>
<svg
   xmlns:dc="http://purl.org/dc/elements/1.1/"
   xmlns:cc="http://creativecommons.org/ns#"
   xmlns:rdf="http://www.w3.org/1999/02/22-rdf-syntax-ns#"
   xmlns:svg="http://www.w3.org/2000/svg"
   xmlns="http://www.w3.org/2000/svg"
   xmlns:sodipodi="http://sodipodi.sourceforge.net/DTD/sodipodi-0.dtd"
   xmlns:inkscape="http://www.inkscape.org/namespaces/inkscape"
   width="171.22159mm"
   height="83.405769mm"
   viewBox="0 0 171.22159 83.405769"
   preserveAspectRatio="none"
   version="1.1"
   id="svg5971"
   inkscape:version="1.0.1 (3bc2e813f5, 2020-09-07)"
   sodipodi:docname="footer-left.svg">
  <defs
     id="defs5965">
    <clipPath
       id="clip396">
      <path
         d="m 1,2110 h 201 v 213 H 1 Z m 0,0"
         id="path1622" />
    </clipPath>
    <clipPath
       id="clip397">
      <path
         d="m 1,2170 h 393 v 177.1016 H 1 Z m 0,0"
         id="path1625" />
    </clipPath>
    <clipPath
       id="clip398">
      <path
         d="m 328,2172 h 159 v 175.1016 H 328 Z m 0,0"
         id="path1628" />
    </clipPath>
  </defs>
  <sodipodi:namedview
     id="base"
     pagecolor="#ffffff"
     bordercolor="#666666"
     borderopacity="1.0"
     inkscape:pageopacity="0.0"
     inkscape:pageshadow="2"
     inkscape:zoom="0.60906217"
     inkscape:cx="739.75407"
     inkscape:cy="244.4579"
     inkscape:document-units="mm"
     inkscape:current-layer="layer1"
     inkscape:document-rotation="0"
     showgrid="false"
     inkscape:window-width="1728"
     inkscape:window-height="1014"
     inkscape:window-x="-4"
     inkscape:window-y="32"
     inkscape:window-maximized="0" />
  <metadata
     id="metadata5968">
    <rdf:RDF>
      <cc:Work
         rdf:about="">
        <dc:format>image/svg+xml</dc:format>
        <dc:type
           rdf:resource="http://purl.org/dc/dcmitype/StillImage" />
        <dc:title></dc:title>
      </cc:Work>
    </rdf:RDF>
  </metadata>
  <g
     inkscape:label="Layer 1"
     inkscape:groupmode="layer"
     id="layer1"
     transform="translate(291.98579,43.970744)">
    <g
       clip-path="url(#clip396)"
       clip-rule="nonzero"
       id="g4609"
       transform="matrix(0.3527778,0,0,0.3527778,-292.33857,-788.57031)">
      <path
         style="fill:#751e7f;fill-opacity:1;fill-rule:nonzero;stroke:none"
         d="m 197.51953,2136.2383 -0.0117,0.07 z m -9.41406,-25.2695 c -0.64063,-0.5704 -2.11719,-0.3204 -6.6211,0.8593 -13.42968,3.5313 -14.97656,4.293 -20.02343,9.793 -4.46875,4.8672 -6.61328,8.7383 -9.26563,16.707 -1.30469,3.9102 -1.59765,4.3321 -4.04297,5.6836 -3.28906,1.8164 -5.97265,3.5586 -14.66797,9.4766 -9.22656,6.293 -10.08984,6.9336 -12.88281,9.543 -1.23437,1.1601 -3.96484,3.3906 -6.0664,4.9687 -2.10157,1.5781 -5.75,4.4883 -8.10938,6.4609 -2.35937,1.9805 -4.36719,3.5977 -4.46094,3.6094 -0.5039,0.031 6.41016,-11.9609 9.38672,-16.2812 2.36328,-3.418 3.94922,-5.7696 6.09375,-9 2.52735,-3.8008 8.36719,-9.1289 13.20703,-12.0391 4.63672,-2.7891 13.26563,-10.6992 16.88282,-15.4687 2.09765,-2.7696 3.69531,-4.6329 8.43359,-9.7813 0.89844,-0.9805 0.96484,-1.4687 0.30078,-2.3516 -0.64844,-0.8671 -1.21484,-0.9765 -2.58203,-0.4882 -0.96094,0.3515 -3.39063,0.6289 -5.39063,0.6289 -4.53125,0.012 -6.80859,0.6523 -11.83593,3.3398 -4.37891,2.3399 -7.58203,5.1094 -9.40625,8.1328 -2.21094,3.6602 -5.25391,12.6992 -5.56641,16.5274 -0.26562,3.3007 -0.53125,3.9922 -2.02734,5.3007 -0.94531,0.8321 -1.84375,1.5 -1.99219,1.5 -0.14844,-0.012 -0.42578,-1.4687 -0.61328,-3.25 -0.37109,-3.4609 -2.63281,-16.7187 -3.73047,-21.8515 -1.61719,-7.5469 -2.07422,-8.9766 -3.05078,-9.5469 -1.45313,-0.8398 -1.60938,-0.7812 -1.74609,0.668 -0.11329,1.2304 -0.61719,2.3594 -1.94922,4.3789 -2.4961,3.7812 -7.476566,12.8633 -8.089848,14.7617 -0.828124,2.5508 -1.171874,6.8203 -0.804687,9.9688 0.367187,3.1796 3.285155,7.9218 7.718755,12.5507 l 3.94531,4.1211 -2.10156,3.2578 c -3.27735,5.0821 -5.07422,8.2227 -8.894536,15.5704 -1.953125,3.75 -4.941406,8.6328 -6.640625,10.8593 -1.703125,2.2227 -4.964844,6.4532 -7.25,9.4024 -2.285157,2.9492 -4.515625,5.8906 -4.957031,6.5508 -0.441407,0.6484 -2.355469,2.8281 -4.257813,4.8398 -1.898437,2.0078 -4.207031,4.6875 -5.128906,5.9492 -0.917969,1.2695 -4.117188,4.8399 -7.101563,7.9414 -2.988281,3.0899 -5.8125,6.1485 -6.273437,6.7774 -1.210938,1.6523 -16.605469,18.4101 -22.4375,24.4297 -3.542969,3.6523 -5.082031,4.9804 -5.390625,4.6601 -0.238282,-0.25 -0.269532,-0.6094 -0.06641,-0.7969 0.199218,-0.1914 0.707031,-1.8906 1.128906,-3.7734 0.769531,-3.418 1.535156,-4.6992 2.855468,-4.7383 1.351563,-0.039 7.261719,-3.6914 10.160157,-6.2812 1.609375,-1.4297 3.800781,-3.8672 4.875,-5.418 1.074219,-1.543 2.765625,-3.9609 3.757812,-5.3711 3.121094,-4.4297 6.347657,-11.3398 7.679688,-16.4492 0.707031,-2.711 1.457031,-5.0899 1.664062,-5.2891 0.660157,-0.6328 0.484375,-2.8125 -0.289062,-3.6328 -0.4375,-0.457 -1.019531,-0.5195 -1.425781,-0.1289 -0.375,0.3516 -2.035157,1.25 -3.6875,1.9883 -1.65625,0.7422 -3.519532,1.7109 -4.144532,2.1719 -5.074218,2.6015 -8.488281,7.6484 -11.570312,11.5195 -1.257813,1.5586 -3.898438,5.8008 -4.578125,7.3711 -0.234375,0.539 -0.578125,0.8086 -0.773438,0.6094 -0.386719,-0.4102 1.984375,-9.3399 3.035157,-11.4219 0.367187,-0.7266 0.972656,-1.457 1.34375,-1.6289 0.625,-2.5781 1.625,-5.8789 3.136718,-8.2578 4.90625,-7.5235 5.6875,-8.4297 8.320313,-9.6602 1.398437,-0.6601 4.59375,-1.6016 7.09375,-2.082 9.347656,-1.8203 15.554687,-4.3008 19.535156,-7.8008 1.816406,-1.5977 6.398437,-7.668 8.699219,-11.5273 0.773437,-1.293 -0.261719,-3.7227 -1.203125,-2.8321 -5.714844,2.1992 -11.273438,3.6016 -16.78125,5.3594 -3.316407,1.0508 -6.753907,2.9102 -8.777344,4.7617 -0.742187,0.6797 -1.328125,0.9805 -1.300781,0.6602 0.07422,-0.9492 4.457031,-7.4219 6.59375,-9.7305 3.039062,-3.3008 4.175781,-4.7305 4.390625,-5.5391 0.199219,-0.7421 4.203125,-6.0625 9.421875,-12.5117 6.554687,-8.0976 12.3125,-19.5273 10.699218,-21.2304 -0.539062,-0.5704 -1.664062,-0.5391 -3.753906,0.09 -1.640625,0.5 -3.1875,0.8828 -3.4375,0.8398 -5.0625,1.6797 -11.324218,4.6211 -14.582031,8.1133 -3.238281,3.4883 -4.335937,5.8594 -5.285156,11.418 -0.8125,4.75 -0.796875,5.9414 0.148437,11.2891 1.019532,5.7695 0.972656,5.9804 -2.015625,9.5195 -1.082031,1.2734 -2.847656,3.6133 -3.925781,5.1914 -5.457031,8 -9.710938,14.4101 -13.425781,20.2109 -2.261719,3.5391 -4.203125,6.3282 -4.324219,6.1992 -0.117188,-0.121 -0.230469,-1.25 -0.253906,-2.5 -0.02344,-1.25 -0.152344,-4.2304 -0.289063,-6.6015 -0.136719,-2.3789 -0.289062,-5.2695 -0.335937,-6.418 -0.05078,-1.1484 -0.269532,-3.7617 -0.492188,-5.8008 -0.21875,-2.039 -0.648437,-6.4297 -0.949218,-9.75 -1.105469,-12.1914 -3.015626,-20.0078 -4.535157,-18.5703 -3.578125,5.4414 -6.363281,12.2305 -8.46875,17.6016 -1.917969,5.1406 -3.15625,11.9609 -3.25,17.9297 -0.117187,7.1484 4.269531,13.8008 13.523438,20.5195 l 1.664062,1.2109 -1.554687,5.5508 c -0.855469,3.0586 -2.09375,8.5977 -2.75,12.3164 -0.65625,3.7227 -1.445313,7 -1.753906,7.293 -0.402344,0.3789 -0.804688,-0.4023 -1.398438,-2.7109 -1.695312,-6.6094 -7.816406,-16.5391 -13.851562,-22.461 -0.875,-0.8594 -4.003907,-4.039 -6.949219,-7.0703 -5.683594,-5.8476 -6.8125,-6.3672 -6.003907,-2.7773 0.21875,0.957 0.382813,4.3476 0.371094,7.5273 -0.046875,13.1406 0.378906,17.1602 2.339844,22.0117 1.964844,4.8594 8.339844,11.6289 13.019531,13.8282 1.792969,0.8398 4.410157,2.121 5.816407,2.8515 1.410156,0.7305 3.113281,1.2617 3.789062,1.168 1.105469,-0.1367 1.050781,0.3515 -0.542969,4.75 l -1.773437,4.9023 -3.730469,2.9805 c -2.054687,1.6289 -4.367187,3.5781 -5.140625,4.3281 -1.707031,1.6406 -8.261719,6.7813 -15.882812,12.461 -4.078126,4.6289 -21.484376,11.1796 -15.117188,18.1484 1.527344,1.6211 1.835938,1.7305 2.667969,1 0.519531,-0.457 1.265625,-1.0391 1.660156,-1.2969 0.394531,-0.25 2,-1.4297 3.566406,-2.6211 1.570313,-1.1797 3.308594,-2.2695 3.867188,-2.4101 0.871093,-0.2188 6.28125,-2.0313 14.246093,-4.7617 3.117188,-0.6602 3.425782,3.2617 5.023438,6.6601 3.222656,6.9102 6.585938,10.4805 12.535156,13.3399 1.039063,0.5 3.230469,1.7109 4.871094,2.6914 7.089844,4.25 14.460938,6.4414 19.75,5.8711 0.980469,-0.1016 3.875,-0.1524 6.4375,-0.1016 2.558594,0.051 4.878906,-0.2188 5.15625,-0.6094 0.277344,-0.3789 0.03516,-1.4687 -0.53125,-2.4023 -3.304688,-5.4375 -14.785156,-18.0078 -19.242188,-21.0664 -5.277343,-3.6211 -12.4375,-6.0196 -19.445312,-6.5 -5.707031,-0.3907 -5.820312,-0.4219 -3.535156,-1.1133 1.296875,-0.3867 4.726562,-1.5 7.617187,-2.4688 2.894531,-0.9609 5.765625,-1.8789 6.382813,-2.0507 1.59375,-0.4102 13.488281,-5.4883 16.253906,-6.9375 2.492188,-1.3008 3.984375,-1.6524 4.128906,-0.9727 0.04687,0.2422 1.597656,2.2812 3.441406,4.543 3.550782,4.9375 7.957032,9.3867 13.335938,12.2968 5.796875,2.9805 14.542969,4.1524 23.796875,3.1836 1.617187,-0.164 3.402344,-0.043 3.972656,0.2696 1.531253,0.8476 2.816413,-1.0118 1.671883,-2.4336 -5.554695,-6.8985 -11.109383,-12.8789 -13.335945,-14.3789 -10.710938,-7.1993 -16.996094,-9.0899 -25.582031,-7.6993 -1.292969,0.2188 -2.25,0.2891 -2.121094,0.1719 0.128906,-0.1211 2.734375,-1.9023 5.792968,-3.9531 3.054688,-2.0469 5.714844,-3.8672 5.90625,-4.0469 0.191407,-0.1797 0.523438,0.09 0.734376,0.5977 1.046874,2.539 20.058593,7.0312 28.589846,6.7617 2.8711,-0.09 5.65625,-0.75 9.44531,-2.2305 2.95704,-1.1601 5.625,-2.039 5.92969,-1.9609 1.03516,0.2812 1.33594,-0.5899 0.72266,-2.0586 -0.88281,-2.1211 -6.70313,-6.0391 -11.25,-7.5703 -5.78906,-1.961 -13.070319,-1.9492 -19.097663,0.019 -4.339843,0.5703 -15.039062,7.5117 -11.742187,4.1485 0.652344,-0.6485 3.335937,-2.75 5.96875,-4.6602 3.15625,-2.2891 7.640625,-6.2695 13.175781,-11.668 7.312509,-7.1523 8.882819,-8.9297 12.234379,-13.8789 2.11328,-3.1328 4.46484,-6.5 5.22266,-7.4922 1.29297,-1.6914 1.29687,-1.8711 0.0625,-3.1797 -1.125,-1.1914 -1.75782,-1.3203 -4.48438,-0.9179 -5.5625,0.8086 -9.289065,2.8476 -14.83594,8.1289 -4.121094,3.918 -5.386719,5.4805 -8.367188,10.3203 -4.386718,7.1289 -5.976562,10.4805 -7.425781,15.6797 l -1.144531,4.0898 -6.21875,4.3711 c -7.027344,4.9375 -21.058594,13 -23.738282,13.6289 -0.972656,0.2305 -1.296874,0.1992 -0.710937,-0.082 0.582031,-0.2773 3.699219,-2.8398 6.925781,-5.6797 4.992188,-4.4101 6.601563,-6.168 10.820313,-11.8086 5.890625,-7.8711 7.105469,-10.4687 5.511719,-11.8008 -0.953126,-0.8007 -1.757813,-0.6211 -6.558594,1.4414 -3.007813,1.2774 -7.015625,3.2579 -8.90625,4.3985 -4.613282,2.75 -12.011719,8.8398 -14.917969,12.2617 -2.542969,3 -6.222656,9.8086 -6.609375,12.2187 -0.128906,0.8204 -0.765625,2.4688 -1.414062,3.6797 -1.121094,2.0703 -1.34375,2.2305 -4.277344,3.0899 -1.707032,0.4922 -7.78125,2.3398 -13.5,4.1094 -5.722656,1.7695 -10.542969,3.2109 -10.714844,3.2109 -0.355469,-0.012 8.582031,-7.9883 15.574219,-13.8984 7.527343,-6.3711 38.148437,-35.6719 42.636719,-40.8008 2.253906,-2.5821 6.417968,-7.0313 9.253906,-9.9024 2.832031,-2.8672 5.910156,-6.1484 6.839844,-7.289 1.816406,-2.2305 5.089843,-4.3672 9.871093,-6.4297 1.652344,-0.711 4.585938,-2 6.515625,-2.8711 1.929688,-0.8594 4.847656,-1.9766 6.484375,-2.4883 1.636719,-0.5 4.605473,-1.4609 6.593753,-2.1406 3.34375,-1.1211 3.67578,-1.1211 4.30078,0.082 1.1211,2.1367 7.04297,8.0703 9.67578,9.6992 6.89063,4.25 14.1875,5.4688 26.53907,4.4297 2.51562,-0.2109 4.70703,-0.6289 4.875,-0.9414 0.42578,-0.8008 -5.67579,-7.5586 -9.2461,-10.25 -6.62109,-4.9805 -16.85937,-8.8906 -21.23047,-8.1094 -0.8789,0.1602 -1.59375,0.1914 -1.58984,0.07 0,-0.121 2.29297,-1.4609 5.09375,-2.9687 4.90625,-2.6523 5.12109,-2.7109 5.97266,-1.5625 0.58593,0.7812 1.33593,1.1133 2.23437,0.9805 0.74219,-0.1094 2.78125,0.332 4.53125,0.9804 1.75,0.6524 4.16406,1.3516 5.36328,1.5586 1.19922,0.211 2.28125,0.4805 2.39844,0.6133 0.12109,0.1289 1.79687,0.5469 3.72266,0.9492 7.22265,1.4805 11.07031,1.2188 15.76953,-1.082 6.2539,-3.0469 6.83593,-4.1602 3.54297,-6.7305 -4.55079,-3.5273 -14.60938,-6.3672 -20.65235,-5.8164 -4.05859,0.3672 -5.0625,0.1875 -3.5625,-0.6328 0.54297,-0.3008 1.15625,-1.0391 1.36719,-1.6406 0.35547,-1.0195 3.89062,-3.9297 7.71875,-6.3477 0.79297,-0.5117 4.12109,-3.0508 7.39453,-5.6601 5.24219,-4.1719 6.20703,-5.1289 8.07422,-8.0313 1.16797,-1.8203 2.17187,-3.7383 2.23828,-4.2695 0.24219,-2.0195 -4.73437,-3.5313 -8.22656,-2.5 -5.91406,1.75 -16.48438,12.9101 -24.46094,25.8203 l -3.36328,5.4492 -8.36719,4.0899 c -11.16797,5.4609 -14.1875,6.789 -18.41015,8.1015 l -3.56641,1.1094 3.91797,-3.1719 c 7.48828,-6.0468 17.10547,-16.1484 17.71484,-18.5898 0.0937,-0.3789 0.73047,-1.75 1.41797,-3.0391 0.90235,-1.6992 1.03906,-2.5586 0.5,-3.1289 -0.58984,-0.6211 -1.88672,-0.3008 -6.25,1.5195 -9.27344,3.8907 -11.47265,5.5508 -17.72656,13.4297 -7.472662,9.4102 -9.480474,12.2891 -10.488286,15.0586 l -0.800782,2.2032 -4.300781,1.75 c -2.367187,0.957 -4.542969,1.9804 -4.835937,2.25 -0.292969,0.2773 -0.585938,0.2382 -0.652344,-0.082 -0.07031,-0.3203 0.992187,-2.0586 2.351562,-3.8594 1.359375,-1.8007 3.3125,-4.9492 4.339844,-6.9882 2.113281,-4.1914 1.878906,-3.8828 8.730469,-11.5 15.960945,-17.7305 26.789065,-27.711 29.976565,-27.6211 0.875,0.031 1.91406,-0.2617 2.30078,-0.6289 0.42969,-0.4024 2.46094,-0.25 5.10156,0.3672 5.79297,1.371 7.94532,1.5 12.3086,0.7695 3.21875,-0.5469 5.0664,-1.1172 9.94922,-3.0977 0.6875,-0.2812 1.82031,-0.7304 2.51953,-1 0.69531,-0.2695 3.17578,-1.3906 5.51172,-2.5 2.33593,-1.1093 4.66797,-2.2109 5.17968,-2.4492 3.61329,-1.6719 -9.57421,-5.543 -16.88671,-4.9531 -1.91797,0.1601 -3.66407,0.2812 -3.88282,0.2734 -0.21875,-0.012 -1.42578,0.2696 -2.67578,0.6289 -3.32422,0.9297 -3.80078,0 -0.66797,-1.3125 0.79297,-0.3281 2.1211,-1.0468 2.94922,-1.5898 0.82813,-0.5469 2.04688,-1.0078 2.70703,-1.0195 0.66016,-0.02 1.58594,-0.3907 2.05469,-0.8399 0.46875,-0.4375 1.4375,-1.0508 2.14453,-1.3398 1.30078,-0.5391 11.09375,0.3203 17.76172,1.5625 6.4375,1.1992 14.58984,-0.051 20.22656,-3.1016 3.30469,-1.7891 8.47266,-6.6289 8.0586,-7.5391 -0.86719,-1.9023 -10.48828,-4.3711 -17.1875,-4.4101 -3.80078,-0.2695 -10.91797,1.6289 -14.3086,3.0273 l -3.03515,1.2617 1.96093,-1.9882 c 1.07813,-1.1016 2.27735,-2.3828 2.67188,-2.8633 0.39062,-0.4766 2,-2.3399 3.57812,-4.1289 1.57422,-1.7813 3.3086,-3.7891 3.85157,-4.461 0.54297,-0.6601 2.9375,-3.0976 5.32031,-5.4101 3.42578,-3.3281 4.26172,-4.3789 3.99219,-5.0274 -0.0586,-0.1406 -0.125,-0.2617 -0.20703,-0.3711 l -0.11719,-0.121"
         id="path4607" />
    </g>
    <g
       clip-path="url(#clip397)"
       clip-rule="nonzero"
       id="g4613"
       transform="matrix(0.3527778,0,0,0.3527778,-292.33857,-788.57031)">
      <path
         style="fill:#e8dccf;fill-opacity:1;fill-rule:nonzero;stroke:none"
         d="m -162.24609,2249.1016 c 15.07422,-35.2422 50.58203,-61.7618 103.05859,-62.25 67.125,-0.6328 147.566406,40.039 207.5,26.7382 40.57812,-9.0117 61.74219,-41.5898 106.59766,-43.4179 47.17187,-1.9219 101.55078,33.7578 122.93359,71.0273 21.38672,37.2696 17.05859,74.3828 6.54687,107.1797 -10.5039,32.7813 -26.78125,63.7891 -27.98828,99.4297 -0.19922,5.832 0.0859,11.8633 0.91407,17.9922 14.60937,108.6875 -85.71485,153.8008 -186.69532,99.4687 -100.972652,-54.3476 -403.72656,-172.5 -332.86718,-316.1679"
         id="path4611" />
    </g>
    <g
       clip-path="url(#clip398)"
       clip-rule="nonzero"
       id="g4699"
       transform="matrix(0.3527778,0,0,0.3527778,-292.33857,-788.57031)">
      <path
         style="fill:#386126;fill-opacity:1;fill-rule:nonzero;stroke:none"
         d="m 469.80469,2173.1797 c 0.64062,0.5391 1.10937,1.2891 1.40625,2.2422 1.15234,3.6875 -2,10.2187 -9.08203,18.7773 -4.03907,4.8789 -5.25391,6.8008 -7.41016,11.6992 -1.14063,2.6016 -0.37891,3.1524 1.07812,0.793 1.19922,-1.9531 9.11329,-11.3203 10.8711,-12.8828 0.5625,-0.5 1.89062,-1.25 2.94531,-1.6797 2.03516,-0.8086 9.52734,-1.5898 12.21484,-1.2695 2.4336,0.3008 4.3125,2.1914 4.48829,4.5312 0.14062,1.8477 -0.0234,2.1602 -2.46485,4.5508 -1.86328,1.8281 -3.65625,3.0078 -6.22265,4.0703 -1.98438,0.8164 -3.8086,1.4766 -4.0586,1.4571 -0.25,-0.01 -3.28515,0.582 -6.74219,1.332 -6.29296,1.3594 -13.04687,4.2109 -14.79296,6.2383 -1.60547,1.8593 -7.4375,19.7617 -6.66016,20.4297 0.21875,0.1914 0.54297,-0.098 0.72266,-0.629 1.90234,-5.6601 8.625,-12.7187 14.28515,-15 3.52735,-1.4179 6.67578,-1.5117 8.17188,-0.2187 1.21484,1.0508 1.30859,1.4805 0.7539,3.3281 -0.84375,2.8125 -2.53906,4.8008 -7.47265,8.7813 -6.16407,4.9687 -6.25391,5.039 -11.51953,8.2695 -6.66016,4.0898 -7.67188,5.4219 -9.82813,12.9414 -0.96875,3.3789 -1.64062,6.1406 -1.49609,6.1289 0.14843,-0.019 1.89453,-1.8086 3.88672,-3.9883 4.15625,-4.5625 6.5,-5.8125 10.95703,-5.8632 2.48828,-0.02 2.84375,0.1328 4.78906,2.1132 2.60156,2.6368 2.73047,4.4688 0.48828,7.0664 -5.46484,8.1329 -16.42969,14.3829 -24.35547,15.6602 -1.55859,0.1797 -1.625,0.25 -2.76562,2.9922 -0.64063,1.539 -1.16407,2.9609 -1.16016,3.1484 0.008,0.5391 1.74609,-0.1406 2.46484,-0.9609 0.64063,-0.7266 6.44141,-3.7383 10.07813,-5.2188 4.82422,-1.9687 13.10547,-1.7812 15.61719,0.3711 0.85937,0.7305 0.91015,1.6407 0.28515,5.0703 -0.65625,3.5782 -1.09765,4.5977 -3.10547,7.1875 -2.01171,2.5899 -2.95312,3.3399 -6.67578,5.3516 -6.80078,3.6602 -13.84765,5.3008 -19.63672,4.5586 -4.12109,-0.5195 -7.0039,-0.168 -7.58593,0.9414 -0.29688,0.5586 -1.56641,2.3906 -2.82422,4.0586 -1.25781,1.6719 -3.61328,4.9609 -5.23438,7.3125 -1.62109,2.3398 -3.24218,4.6484 -3.60937,5.1289 -0.51953,0.668 -0.32031,0.6914 0.9414,0.09 0.88282,-0.4218 1.81641,-0.9101 2.07032,-1.0781 1.1875,-0.8008 6.64062,-2.3437 10.13672,-2.8711 6.875,-1.0195 9.89453,0.1992 10.1914,4.1289 0.26953,3.5703 -2.04297,7.0313 -5.98437,8.9414 -3.83594,1.8711 -13.03516,3.25 -22.39453,3.3594 l -4.60938,0.059 -5.07031,7.9219 4.20312,-0.4688 c 4.25782,-0.4726 6.42578,0.01 11.27735,2.5 3.70703,1.9063 5.625,3.7891 5.76953,5.668 0.10547,1.4414 -0.17188,1.918 -2.36719,4.0313 -2.41406,2.3281 -4.71875,3.6093 -7.17187,3.9882 -0.66016,0.1016 -2.52735,0.3985 -4.14844,0.6485 -3.53516,0.5625 -6.99219,0.023 -14.15625,-2.2071 l -5.36719,-1.6718 -3.10156,2.9804 c -1.70703,1.6289 -3.65625,3.711 -4.33203,4.6211 l -1.23438,1.6485 5.12891,-0.2891 c 14.02734,-0.7891 20.23047,0.9688 21.03906,5.9492 0.50781,3.1328 -0.52734,5.1797 -3.82031,7.5899 -3.41406,2.4922 -6.30469,3.2812 -11.14453,3.0429 -5.03516,-0.2617 -8.7461,-1.4804 -14.89453,-4.9218 l -5.07813,-2.8399 -2.16797,2.2617 -2.16406,2.2696 2.15625,0.6601 c 6.25,1.5196 16.30859,7.1563 19.93359,12.2774 0.84375,1.2226 1.75391,3.25 2.02344,4.5117 0.40234,1.8984 0.25781,2.5703 -0.82422,3.8203 -1.57812,1.8281 -4.03515,2.6094 -7.08203,2.2695 -4.13672,-0.4804 -6.00781,-1.7422 -13.01172,-8.7695 -3.51172,-3.5195 -7.20703,-7.1211 -8.21094,-8.0117 l -1.82812,-1.5977 -1.86719,1.6094 c -4.75,4.1094 -9.9375,5.7773 -15.22265,4.9102 -3.55079,-0.5821 -3.98438,-1.9922 -0.94141,-3.0704 0.80859,-0.2812 1.91016,-1.0195 2.44922,-1.6289 9.71094,-5.2734 8.07812,-6.4804 2.47265,-10.9023 -7.71093,-6.0586 -9.71093,-8.3477 -11.82812,-13.5508 -2.36328,-5.8086 -2.28125,-8.8984 0.35156,-12.9297 1.8711,-2.8672 4.77344,-4.4492 6.8125,-3.7109 3.75781,1.3633 8.05469,6.8711 9.8711,12.6406 1.11328,3.5508 3.40234,13 3.92187,16.1914 0.77734,4.7695 2.10547,4.9102 6.56641,0.711 l 2.66015,-2.5196 -0.90625,-1.8008 c -0.5,-1 -2.96093,-4.6211 -5.46875,-8.0625 -2.51172,-3.4375 -4.89062,-7 -5.28906,-7.9101 -1.75781,-4.0274 -2.84375,-9.4766 -2.49609,-12.5586 0.33593,-3 0.58593,-3.5195 3.0039,-6.3281 2.33985,-2.7305 2.81641,-3.0625 4.28125,-3.0196 2.26172,0.066 4.66016,2.2578 7.20313,6.5782 4.5039,7.6406 6.39844,16 5.3789,23.6992 l -0.50781,3.8594 c 3.36719,-2.2774 6.01172,-6.0196 8.75391,-8.3477 3.28125,-2.7695 3.32031,-2.5703 -2.38281,-12.4219 -4.63672,-8.0078 -6.94532,-16.1172 -5.94532,-20.9179 0.57422,-2.7618 4.20703,-7.6016 6.69922,-8.9297 3.51172,-1.8828 7.20703,0.8086 9.10938,6.6367 1.65234,5.0508 2.30078,16.1719 1.27734,21.9101 -0.48047,2.6914 -0.80078,5.1133 -0.71484,5.3907 0.0898,0.2812 3.03515,-2.8399 6.55078,-6.918 l 6.39062,-7.4297 c -1.67187,-1.1914 -2.24609,-3.2734 -2.45703,-4.8594 -0.21094,-1.6914 -1.4375,-6.8203 -2.73047,-11.3906 -3.51172,-12.4414 -3.22656,-20.1328 0.92578,-24.8203 2.51563,-2.832 3.46094,-2.8203 6.15235,0.078 3.92969,4.2422 4.97656,8.4492 4.12109,16.5313 -0.52344,4.9492 -3.09765,16.4101 -4.5,20.039 -0.98047,2.5391 0.42969,2.0703 2.17969,-0.7187 0.73047,-1.1602 1.80078,-2.5625 2.38281,-3.1016 0.91406,-0.8476 5.48828,-6.9492 9.70703,-12.9492 1.65235,-2.3516 2.11719,-5.2695 1.32813,-8.3516 -0.34766,-1.3476 -2.12891,-6.1484 -3.95703,-10.6796 -3.10938,-7.6875 -3.28516,-8.3985 -2.67578,-10.8594 0.78906,-3.1797 3.83984,-7.0196 6.01953,-7.5703 1.10547,-0.2891 1.83203,-0.02 3.23828,1.1914 2.125,1.8281 2.90234,3.3086 4.19922,8.0078 1.15234,4.1797 1.10156,5.9726 -0.40235,13.7734 -0.39453,2.0703 -0.57031,3.8867 -0.39062,4.0469 0.17969,0.1602 0.36719,0.082 0.41406,-0.1797 0.043,-0.25 2.25391,-4.3672 4.91016,-9.1484 6.43359,-11.5703 6.4414,-12.7696 0.0898,-20.9922 -3.875,-5.0195 -5.23828,-7.5 -5.93359,-10.7774 -1.3125,-6.1796 2.69531,-13.7812 6.45703,-12.25 2.67187,1.0899 7.4375,7.6485 8.1875,11.2579 0.22265,1.0898 0.60547,3.6914 0.84375,5.7695 0.37109,3.2617 0.52734,3.6406 1.125,2.7617 0.69922,-1.0312 2.28906,-5.6406 3.95312,-11.4609 0.4961,-1.7383 1.01172,-3.5274 1.14063,-3.9883 0.13281,-0.4492 -0.48828,-1.8203 -1.37891,-3.0391 -0.89062,-1.2226 -3.32812,-6.5312 -5.41406,-11.8008 -4.12891,-10.4218 -4.83594,-14.7812 -3.05078,-18.7812 0.78515,-1.7578 1.08984,-2.0508 2.35547,-2.2109 1.76562,-0.2188 3.78906,1.4101 5.90625,4.7421 1.73437,2.7305 1.95703,3.418 3.80078,11.6875 0.7539,3.3829 1.53125,6.1407 1.73047,6.1211 0.20312,-0.01 0.97656,-2.039 1.72265,-4.5078 0.7461,-2.4609 2.08594,-6.5625 2.98047,-9.1015 l 1.62891,-4.6211 -1.65625,-2.6602 c -0.91016,-1.457 -2.83203,-4.5195 -4.27344,-6.8008 -3.01953,-4.4062 -4.90625,-10.5898 -2.11719,-15.25 0.94141,-1.4765 1.36328,-1.6992 3.25,-1.6797 2.83203,0.031 4.41016,1.4414 6.25,5.5821 1.47657,3.3203 1.96094,6.3203 1.70703,10.6211 -0.0742,1.2773 0,2.3203 0.16407,2.2968 0.41015,-0.027 2.53906,-4.25 3.92578,-7.7968 0.875,-2.2227 1.04297,-4.1328 0.70703,-8.0313 -0.52734,-6.0898 0.42578,-10.582 2.83984,-13.3789 1.40235,-1.6328 2.10938,-2.0117 4.26953,-2.2617 2.02344,-0.2383 3.56641,0.09 4.63282,1"
         id="path4697" />
    </g>
  </g>
</svg>
