<?xml version="1.0" encoding="UTF-8" standalone="no"?>
<svg
   xmlns:dc="http://purl.org/dc/elements/1.1/"
   xmlns:cc="http://creativecommons.org/ns#"
   xmlns:rdf="http://www.w3.org/1999/02/22-rdf-syntax-ns#"
   xmlns:svg="http://www.w3.org/2000/svg"
   xmlns="http://www.w3.org/2000/svg"
   xmlns:sodipodi="http://sodipodi.sourceforge.net/DTD/sodipodi-0.dtd"
   xmlns:inkscape="http://www.inkscape.org/namespaces/inkscape"
   width="12.08264mm"
   height="12.086776mm"
   viewBox="0 0 12.08264 12.086776"
   version="1.1"
   id="svg7137"
   inkscape:version="1.0.1 (3bc2e813f5, 2020-09-07)"
   sodipodi:docname="instagram.svg">
  <defs
     id="defs7131" />
  <sodipodi:namedview
     id="base"
     pagecolor="#ffffff"
     bordercolor="#666666"
     borderopacity="1.0"
     inkscape:pageopacity="0.0"
     inkscape:pageshadow="2"
     inkscape:zoom="3.6510789"
     inkscape:cx="-47.661473"
     inkscape:cy="79.645965"
     inkscape:document-units="mm"
     inkscape:current-layer="layer1"
     inkscape:document-rotation="0"
     showgrid="false"
     inkscape:window-width="1728"
     inkscape:window-height="1014"
     inkscape:window-x="-4"
     inkscape:window-y="32"
     inkscape:window-maximized="0" />
  <metadata
     id="metadata7134">
    <rdf:RDF>
      <cc:Work
         rdf:about="">
        <dc:format>image/svg+xml</dc:format>
        <dc:type
           rdf:resource="http://purl.org/dc/dcmitype/StillImage" />
        <dc:title></dc:title>
      </cc:Work>
    </rdf:RDF>
  </metadata>
  <g
     inkscape:label="Layer 1"
     inkscape:groupmode="layer"
     id="layer1"
     transform="translate(298.59489,108.09696)">
    <path
       style="fill:#751e7f;fill-opacity:1;fill-rule:nonzero;stroke:none;stroke-width:0.352777"
       d="m -292.50672,-103.25591 c -0.66284,0 -1.20301,0.53881 -1.20301,1.20165 0,0.66421 0.54017,1.20303 1.20301,1.20303 0.66424,0 1.20304,-0.53882 1.20304,-1.20303 0,-0.66284 -0.5388,-1.20165 -1.20304,-1.20165"
       id="path4711" />
    <path
       style="fill:#751e7f;fill-opacity:1;fill-rule:nonzero;stroke:none;stroke-width:0.352777"
       d="m -288.71436,-100.58941 c 0,1.262287 -1.02662,2.288925 -2.29306,2.288925 h -3.02341 c -1.26227,0 -2.28893,-1.026638 -2.28893,-2.288925 v -3.02755 c 0,-1.26228 1.02666,-2.28892 2.28893,-2.28892 h 3.02341 c 1.26644,0 2.29306,1.02664 2.29306,2.28892 z m -3.84059,-7.50755 c -3.33071,0 -6.03994,2.71336 -6.03994,6.0427 0,3.330718 2.70923,6.044076 6.03994,6.044076 3.33347,0 6.0427,-2.713358 6.0427,-6.044076 0,-3.32934 -2.70923,-6.0427 -6.0427,-6.0427"
       id="path4713" />
    <path
       style="fill:#751e7f;fill-opacity:1;fill-rule:nonzero;stroke:none;stroke-width:0.352777"
       d="m -290.51681,-103.61282 c -0.2467,0 -0.44789,-0.19706 -0.44789,-0.44511 0,-0.24667 0.20119,-0.44786 0.44789,-0.44786 0.24666,0 0.44785,0.20119 0.44785,0.44786 0,0.24805 -0.20119,0.44511 -0.44785,0.44511 z m -1.98991,3.43545 c -1.0335,0 -1.87689,-0.84198 -1.87689,-1.87689 0,-1.03629 0.84339,-1.87551 1.87689,-1.87551 1.03766,0 1.88104,0.83922 1.88104,1.87551 0,1.03491 -0.84338,1.87689 -1.88104,1.87689 z m 1.4993,-5.01193 h -3.02341 c -0.86677,0 -1.57233,0.70556 -1.57233,1.57234 v 3.02755 c 0,0.868168 0.70556,1.573724 1.57233,1.573724 h 3.02341 c 0.87232,0 1.57374,-0.705556 1.57374,-1.573724 v -3.02755 c 0,-0.86678 -0.70142,-1.57234 -1.57374,-1.57234"
       id="path4715" />
  </g>
</svg>
