<?xml version="1.0" encoding="UTF-8" standalone="no"?>
<svg
   xmlns:dc="http://purl.org/dc/elements/1.1/"
   xmlns:cc="http://creativecommons.org/ns#"
   xmlns:rdf="http://www.w3.org/1999/02/22-rdf-syntax-ns#"
   xmlns:svg="http://www.w3.org/2000/svg"
   xmlns="http://www.w3.org/2000/svg"
   xmlns:sodipodi="http://sodipodi.sourceforge.net/DTD/sodipodi-0.dtd"
   xmlns:inkscape="http://www.inkscape.org/namespaces/inkscape"
   width="265.25888mm"
   height="133.90527mm"
   viewBox="0 0 265.25888 133.90527"
   version="1.1"
   id="svg12213"
   inkscape:version="1.0.1 (3bc2e813f5, 2020-09-07)"
   sodipodi:docname="subheader-1.svg">
  <defs
     id="defs12207">
    <clipPath
       id="clip5">
      <path
         d="M 0,39 H 752 V 419 H 0 Z m 0,0"
         id="path364" />
    </clipPath>
    <clipPath
       id="clip6">
      <path
         d="m -23.050781,795.76172 c 44.964843,-20.65235 121.355469,-23.21094 170.785151,-25.44141 54.27735,-2.4414 109.10938,-4.85937 162.56641,4.8711 37.38672,6.79687 73.61719,19.46875 111.28125,24.53906 59.75781,8.05859 119.47656,-3.25 179.26953,-14.57031 56.07813,-10.6211 112.21485,-21.23047 168.51172,-15.85938 56.38672,5.37891 111.31641,17.03906 167.87109,13.91016 62.27344,-3.44922 119.74613,-17.15235 181.84373,-22.98047 56.0117,-5.26953 107.7305,2.28125 161.4219,19.07812 V 806.12891 39.398438 H 0 V 806.12891 l -23.050781,-10.36719"
         id="path367" />
    </clipPath>
    <clipPath
       id="clip173">
      <path
         d="M 0,160 H 165 V 388 H 0 Z m 0,0"
         id="path868" />
    </clipPath>
    <clipPath
       id="clip174">
      <path
         d="m -23.050781,795.76172 c 44.964843,-20.65235 121.355469,-23.21094 170.785151,-25.44141 54.27735,-2.4414 109.10938,-4.85937 162.56641,4.8711 37.38672,6.79687 73.61719,19.46875 111.28125,24.53906 59.75781,8.05859 119.47656,-3.25 179.26953,-14.57031 56.07813,-10.6211 112.21485,-21.23047 168.51172,-15.85938 56.38672,5.37891 111.31641,17.03906 167.87109,13.91016 62.27344,-3.44922 119.74613,-17.15235 181.84373,-22.98047 56.0117,-5.26953 107.7305,2.28125 161.4219,19.07812 V 806.12891 39.398438 H 0 V 806.12891 l -23.050781,-10.36719"
         id="path871" />
    </clipPath>
  </defs>
  <sodipodi:namedview
     id="base"
     pagecolor="#ffffff"
     bordercolor="#666666"
     borderopacity="1.0"
     inkscape:pageopacity="0.0"
     inkscape:pageshadow="2"
     inkscape:zoom="0.35"
     inkscape:cx="1083.3638"
     inkscape:cy="781.62078"
     inkscape:document-units="mm"
     inkscape:current-layer="layer1"
     inkscape:document-rotation="0"
     showgrid="false"
     inkscape:window-width="1700"
     inkscape:window-height="1014"
     inkscape:window-x="216"
     inkscape:window-y="32"
     inkscape:window-maximized="0" />
  <metadata
     id="metadata12210">
    <rdf:RDF>
      <cc:Work
         rdf:about="">
        <dc:format>image/svg+xml</dc:format>
        <dc:type
           rdf:resource="http://purl.org/dc/dcmitype/StillImage" />
        <dc:title></dc:title>
      </cc:Work>
    </rdf:RDF>
  </metadata>
  <g
     inkscape:label="Layer 1"
     inkscape:groupmode="layer"
     id="layer1"
     transform="translate(589.98062,58.637165)">
    <g
       clip-path="url(#clip5)"
       clip-rule="nonzero"
       id="g1643"
       transform="matrix(0.3527778,0,0,0.3527778,-589.98062,-72.536059)">
      <g
         clip-path="url(#clip6)"
         clip-rule="nonzero"
         id="g1641">
        <path
           style="fill:#386126;fill-opacity:1;fill-rule:nonzero;stroke:none"
           d="m 98.40625,55.980469 c 52.80078,10.910156 110.28125,8.449219 161.44922,-8.390625 31.87109,-10.488282 58.14062,-13.417969 91.73437,-8.949219 43.72657,5.820313 70.32813,36.597656 111.03907,50.378906 27.3164,9.242188 58.94531,4.421875 90.57812,-0.398437 21.01953,-3.210938 42.03906,-6.410156 61.80469,-5.492188 67.16015,3.152344 126.76562,47.761714 135.71875,101.589844 4.92578,29.64062 -5.78906,60.37109 -27,85.28125 C 660.46484,335.82031 411.70703,424.19922 243.61719,418.73047 75.523438,413.26172 -222.46484,-93.601562 98.40625,55.980469"
           id="path1639" />
      </g>
    </g>
    <g
       clip-path="url(#clip173)"
       clip-rule="nonzero"
       id="g2147"
       transform="matrix(0.3527778,0,0,0.3527778,-589.98062,-72.536059)">
      <g
         clip-path="url(#clip174)"
         clip-rule="nonzero"
         id="g2145">
        <path
           style="fill:#751e7f;fill-opacity:1;fill-rule:nonzero;stroke:none"
           d="m 50.242188,166.67969 c 0.171874,0.23047 0.273437,0.51172 0.277343,0.87109 l -0.101562,0.12891 c 0.03906,-0.33985 -0.01172,-0.66797 -0.175781,-1 m 46.671874,119.60937 c 0.02734,0.10938 0.0625,0.22266 0.08594,0.33203 l -0.25,0.0781 c 0.07422,-0.12891 0.125,-0.26953 0.164062,-0.41016 m -29.332031,12.83985 c 0.171875,-0.64844 0.8125,-0.44922 1.011719,0.12109 -0.339844,-0.23047 -0.683594,-0.30078 -1.011719,-0.12109 m 46.890627,34.85937 c 0.15234,-0.0273 0.30468,-0.0664 0.45703,-0.0898 -0.20313,0.21093 -0.30078,0.48047 -0.26563,0.83984 -0.10156,-0.22656 -0.16797,-0.46875 -0.1914,-0.75 m 39.28906,4.36328 0.1289,0.16797 c -0.0937,0.10938 -0.1914,0.21094 -0.28906,0.30859 0.0625,-0.14843 0.11328,-0.3164 0.16016,-0.47656 m -38.94531,-3.33203 c 0.52734,0.42969 1.0664,0.83984 1.61328,1.24219 -0.64453,-0.32031 -1.25,-0.69141 -1.61328,-1.24219 m 17.94531,16.60938 0.10547,0.0195 -0.0859,0.0234 -0.0195,-0.043 m 26.59765,30.39062 -0.16406,-0.12891 0.23047,-0.10156 c 0.0625,-0.11719 0.10547,-0.23828 0.15625,-0.36719 -0.008,0.20704 -0.0117,0.41797 -0.0234,0.62891 h -0.0664 l -0.13282,-0.0312 m -32.59765,1.55078 c 0.45312,-1.6289 0.68359,-3.33984 0.96484,-5.01172 1.28906,-8.60937 1.09766,-17.76953 -2.49609,-25.82812 -0.39453,-0.62891 -0.86328,-2.19922 0.29687,-2.24219 2.59375,1.58203 5.00782,3.90234 5.875,6.91016 0.0352,1.16015 1.21094,1.61328 1.85938,2.39062 4.12109,7.75 10.75781,13.74219 17.53906,19.13281 3.17188,2.16797 5.84766,4.96875 8.95313,7.21875 1.17187,1.1211 3.66015,1.60938 4.45703,-0.17968 -0.47266,-3.53125 -1.35938,-6.98047 -2.01172,-10.48047 -1.16016,-6.78125 -3.27344,-13.89063 -8.48047,-18.69141 -5.82422,-4.84765 -13.5,-6.42969 -20.80078,-7.53906 -3.30078,-0.12891 -6.13672,-2.05078 -8.59375,-4.08984 -0.89453,-0.91016 -2.0625,-1.44922 -2.97656,-2.3086 -0.5625,-1.21094 1.38672,-1.35156 1.82812,-0.41015 3.6836,1.5 7.48828,2.71875 11.39844,3.46875 6.34375,1.44921 13.12109,0.10937 18.67578,-3.19141 1.69531,-1.16016 3.63672,-2.08984 4.99219,-3.66797 0.96484,-1.10937 -0.22657,-2.49219 -1.3125,-2.91016 -3.6211,-1.12109 -6.9375,-3.01953 -10.47657,-4.35937 -9.15234,-3.16016 -19.05468,-2.30078 -28.46093,-0.91016 -3.09375,0.21875 -6.30469,1.76953 -9.34375,0.45703 -2.41016,-1.67968 -5.05469,-3.25781 -6.73828,-5.73828 6.45312,1.76953 13.23828,3.01953 19.92968,1.98047 7.86328,-1.37109 14.39453,-6.37109 20.41016,-11.30859 1.35156,-0.6211 2.63281,-2.55078 1.38672,-3.85156 -3.16406,-1.08204 -6.25391,-2.33985 -9.38672,-3.48829 -10.74219,-4.34375 -22.94531,-5.40234 -34.10937,-2.07031 -3.191409,0.96875 -6.320316,2.25 -9.207034,3.91016 -1.0625,0.6875 -2.292969,2.19922 -3.65625,1.26953 C 85.46875,310.55078 83.683594,309 82.007812,307.35937 75.613281,301.01953 71.21875,293.07812 65.855469,285.92969 c -0.53125,-0.51953 -1.285157,-1.83985 -0.179688,-2.14844 9.753907,5.64062 21.621094,8.21875 32.710938,5.57031 1.4375,-0.11328 3.238281,-1.13281 2.929691,-2.8125 -3.277348,-7.00781 -8.72266,-12.91797 -15.265629,-17.01953 -8.003906,-5.25 -17.757812,-6.23047 -26.640625,-9.26953 -2.226562,-1.39063 -4.953125,-1.32813 -7.351562,-2.26172 -2.304688,-5.29687 -3.453125,-11 -4.566406,-16.64844 0.03125,-1.62109 -1.296876,-3.30078 -0.351563,-4.85937 1.925781,2.30078 4.089844,4.39844 6.460937,6.25 5.179688,3.64844 10.625,7.1914 16.773438,8.96094 2.3125,0.57031 4.761719,1.16796 7.148438,0.73828 1.195312,-0.0781 1.632812,-1.5 1.121093,-2.44922 -1.75,-6.46875 -5.488281,-12.44141 -10.757812,-16.60938 -4.546875,-3.82031 -10.164063,-5.92968 -15.640625,-8.01953 -2.347656,-1.13281 -5.1875,-1.79297 -6.785156,-4.02344 -0.886719,-11.63671 -2.402344,-20.46875 1.582031,-33.52734 1.046875,-2.35937 1.191406,-5.08984 2.691406,-7.24219 0.519531,-0.48047 0.109375,1.80078 0.304687,2.42969 0.617188,8.87109 3.324219,17.66016 8.074219,25.20313 3.710938,6.19921 10.210938,9.89843 16.480469,13.04687 1.222656,0.77344 3.136719,1.87109 4.328125,0.47266 -0.03125,-1.42969 -0.730469,-2.72266 -1.265625,-4.01172 -1.992188,-7.33985 -0.367188,-15.08985 -1.980469,-22.48828 -1.492187,-7.35157 -6.507812,-13.19922 -11.027343,-18.92188 -2.988282,-3.66015 -6.453126,-7.58984 -6.652344,-12.57031 0.367187,-0.94922 -0.0625,-2.53906 -1.316406,-2.37891 -4.414063,1.85938 -9.328126,1.10157 -13.882813,0.26172 -8.722656,-1.97265 -18.554687,-0.61328 -25.628906,5.12891 -6.078125,5.21094 -9.027344,12.85937 -12.726563,19.73828 -0.546875,1.40234 -2.246094,2.78125 -1.359375,4.39062 1.011719,0.24219 1.914063,-0.4375 2.859375,-0.66796 8.644532,-3.10157 18.019532,-3.41016 26.613282,-6.69141 6.265624,-1.92969 11.050781,-6.64063 16.695312,-9.75 -1.765625,4.14062 -3.730469,8.21094 -5.085938,12.51172 -0.640624,3.13672 -3.433593,5.05859 -5.8125,6.88672 -4.582031,1.82031 -9.328124,3.32031 -13.847656,5.35156 -7.117187,3.12109 -14.34375,7.19141 -18.585937,13.94922 -4.191407,7.24219 -4.921875,15.80078 -5.386719,23.98047 0.105469,1.94922 -0.5039062,3.8789 -0.296875,5.83203 -0.050781,1.47656 1.964844,2.01953 2.878906,1 10.203125,-12.70313 23.4375,-22.60156 33.363281,-35.55078 2.277344,-2.08985 2.984376,-5.35157 5.292969,-7.42188 -2.003906,10.80078 -1.757812,23.24219 -0.375,35.21094 -3.347656,2.71875 -7.320312,4.73047 -10.089843,8.10937 -5.296876,6.35938 -7.007813,14.89063 -7.042969,22.96875 -0.402344,8.45313 6.035156,17.10157 12.636719,23.44141 2.046874,1.51953 2.679687,4.17188 4.425781,5.94922 0.609375,0.92969 2.105469,1.49219 2.925781,0.51172 0.519531,-1.40235 -0.191406,-2.94141 -0.371094,-4.35938 -1.582031,-10.01172 0.96875,-20.01172 2.921875,-29.79297 0.449219,-1.20703 0.175781,-2.71875 1.109375,-3.71875 1.308594,4.01172 3.140625,7.82032 4.679688,11.74219 2.671875,5.29688 6.25,10.07813 9.144531,15.26953 1.6875,2.1875 3.707031,4.51953 3.734375,7.44922 -0.382812,2.73047 -1.511719,5.3086 -2.210938,7.96875 -1.296874,5.69141 -2.496093,11.46094 -2.722656,17.3125 -0.519531,5.02735 2.09375,9.54688 3.417969,14.23828 0.492187,3.17969 2.710937,5.62891 4.140625,8.39844 1.140625,3.18359 3.894531,5.53125 4.75,8.83203 -0.199219,1.5 1.773438,2.57813 2.925781,1.60156 1.53125,-2.78125 2.234375,-5.97265 3.171875,-8.99218 3.363282,-10.1211 3.867188,-21.41797 0.09375,-31.48828 -0.28125,-0.70313 -1.078125,-2.0625 0.0625,-2.38282 3.796875,2.48047 5.785156,6.80078 9.117188,9.78125 1.679687,2.0586 3.832031,3.64063 5.878906,5.32032 2.710938,3.01171 6.23047,5.12109 9.07813,7.98046 1.37109,1.21094 1.98437,3.1211 3.6914,3.98047 1.71485,1.32813 3.6875,2.75782 4.32422,4.94922 -0.33594,7.14063 -1.54687,14.41797 0.16406,21.48828 0.30469,3.47266 3.02344,6.01953 3.89063,9.30078 1.48828,1.0625 2.8164,2.33985 3.95703,3.76172 2.75,2.53907 3.37891,6.8086 6.71484,8.78907 l 0.1211,0.0508 c 0.28515,0.0508 0.57031,-0.16016 0.72656,-0.39063"
           id="path2143" />
      </g>
    </g>
  </g>
</svg>
