<?xml version="1.0" encoding="UTF-8" standalone="no"?>
<svg
   xmlns:dc="http://purl.org/dc/elements/1.1/"
   xmlns:cc="http://creativecommons.org/ns#"
   xmlns:rdf="http://www.w3.org/1999/02/22-rdf-syntax-ns#"
   xmlns:svg="http://www.w3.org/2000/svg"
   xmlns="http://www.w3.org/2000/svg"
   xmlns:sodipodi="http://sodipodi.sourceforge.net/DTD/sodipodi-0.dtd"
   xmlns:inkscape="http://www.inkscape.org/namespaces/inkscape"
   width="12.084016mm"
   height="12.08264mm"
   viewBox="0 0 12.084016 12.08264"
   version="1.1"
   id="svg7267"
   inkscape:version="1.0.1 (3bc2e813f5, 2020-09-07)"
   sodipodi:docname="twitter.svg">
  <defs
     id="defs7261" />
  <sodipodi:namedview
     id="base"
     pagecolor="#ffffff"
     bordercolor="#666666"
     borderopacity="1.0"
     inkscape:pageopacity="0.0"
     inkscape:pageshadow="2"
     inkscape:zoom="0.35"
     inkscape:cx="22.835941"
     inkscape:cy="22.833323"
     inkscape:document-units="mm"
     inkscape:current-layer="layer1"
     inkscape:document-rotation="0"
     showgrid="false"
     inkscape:window-width="1728"
     inkscape:window-height="1014"
     inkscape:window-x="188"
     inkscape:window-y="32"
     inkscape:window-maximized="0" />
  <metadata
     id="metadata7264">
    <rdf:RDF>
      <cc:Work
         rdf:about="">
        <dc:format>image/svg+xml</dc:format>
        <dc:type
           rdf:resource="http://purl.org/dc/dcmitype/StillImage" />
        <dc:title></dc:title>
      </cc:Work>
    </rdf:RDF>
  </metadata>
  <g
     inkscape:label="Layer 1"
     inkscape:groupmode="layer"
     id="layer1"
     transform="translate(-99.791324,-142.12535)">
    <path
       style="fill:#751e7f;fill-opacity:1;fill-rule:nonzero;stroke:none;stroke-width:0.352777"
       d="m 109.33286,145.96732 c 0,0.0179 0.001,0.0634 -0.0345,0.113 -0.16536,0.22186 -0.34037,0.4203 -0.56086,0.58566 -0.0331,0.0248 -0.0868,0.0496 -0.0868,0.0951 0,1.16444 -0.29627,2.32475 -1.14514,3.16811 -1.08039,1.07211 -2.70096,1.36563 -4.13963,0.96738 -0.27837,-0.0744 -0.54433,-0.18466 -0.80064,-0.31833 -0.0841,-0.0455 -0.16812,-0.0951 -0.24943,-0.14745 l -0.0179,-0.0427 c 0.0179,-0.011 0.0303,-0.011 0.0951,0 0.40238,0.0386 0.81717,-0.0207 1.19751,-0.15571 0.20946,-0.073 0.6587,-0.21773 0.78824,-0.41617 l 0.01,-0.01 c -0.0524,-0.011 -0.10473,-0.011 -0.15709,-0.0221 -0.39137,-0.113 -0.91227,-0.30731 -1.1548,-0.96601 -0.0152,-0.0386 0,-0.0606 0.04,-0.0537 0.32246,0.0289 0.43822,0.011 0.54984,-0.0138 -0.0634,-0.011 -0.12816,-0.0358 -0.18604,-0.0593 -0.49196,-0.18741 -0.85162,-0.66697 -0.91777,-1.18649 -0.007,-0.0592 -0.0124,-0.10886 -0.01,-0.16536 0.004,-0.0386 0.0207,-0.0524 0.0537,-0.0276 0.25355,0.12954 0.53743,0.15848 0.56086,0.15434 -0.0634,-0.0496 -0.12127,-0.10197 -0.17777,-0.15434 -0.42719,-0.40652 -0.59256,-1.22783 -0.25218,-1.74321 0.0289,-0.0386 0.0469,-0.0386 0.0813,0 0.77997,0.88883 1.74184,1.305 2.90353,1.47863 0.0303,0.003 0.0331,0 0.0289,-0.0358 -0.0303,-0.20395 -0.0345,-0.40514 0.0152,-0.60633 0.051,-0.20809 0.15158,-0.40928 0.28663,-0.57602 0.13091,-0.16124 0.29627,-0.29628 0.48093,-0.39137 0.18466,-0.0978 0.38723,-0.15434 0.59532,-0.1695 0.21359,-0.0138 0.42994,0.022 0.62838,0.10336 0.15021,0.0593 0.28388,0.14469 0.40928,0.24942 l 0.073,0.0744 0.0593,0.0179 c 0.29628,-0.0744 0.57464,-0.18052 0.84474,-0.32522 l 0.0372,-0.003 0.001,0.0386 c -0.0482,0.15572 -0.13367,0.30317 -0.23702,0.42995 -0.0675,0.0854 -0.23565,0.28938 -0.35141,0.31143 0.24254,-0.0427 0.48783,-0.10335 0.71245,-0.20533 h 0.0262 z m -3.49884,-3.84197 c -3.3321,0 -6.042696,2.70922 -6.042696,6.03994 0,3.33347 2.710596,6.0427 6.042696,6.0427 3.33072,0 6.04132,-2.70923 6.04132,-6.0427 0,-3.33072 -2.7106,-6.03994 -6.04132,-6.03994"
       id="path4717" />
  </g>
</svg>
