<?xml version="1.0" encoding="UTF-8" standalone="no"?>
<svg
   xmlns:dc="http://purl.org/dc/elements/1.1/"
   xmlns:cc="http://creativecommons.org/ns#"
   xmlns:rdf="http://www.w3.org/1999/02/22-rdf-syntax-ns#"
   xmlns:svg="http://www.w3.org/2000/svg"
   xmlns="http://www.w3.org/2000/svg"
   xmlns:sodipodi="http://sodipodi.sourceforge.net/DTD/sodipodi-0.dtd"
   xmlns:inkscape="http://www.inkscape.org/namespaces/inkscape"
   width="12.163954mm"
   height="12.16395mm"
   viewBox="0 0 12.163954 12.16395"
   version="1.1"
   id="svg7224"
   inkscape:version="1.0.1 (3bc2e813f5, 2020-09-07)"
   sodipodi:docname="youtube.svg">
  <defs
     id="defs7218" />
  <sodipodi:namedview
     id="base"
     pagecolor="#ffffff"
     bordercolor="#666666"
     borderopacity="1.0"
     inkscape:pageopacity="0.0"
     inkscape:pageshadow="2"
     inkscape:zoom="0.35"
     inkscape:cx="22.987001"
     inkscape:cy="22.986998"
     inkscape:document-units="mm"
     inkscape:current-layer="layer1"
     inkscape:document-rotation="0"
     showgrid="false"
     inkscape:window-width="1728"
     inkscape:window-height="1014"
     inkscape:window-x="188"
     inkscape:window-y="32"
     inkscape:window-maximized="0" />
  <metadata
     id="metadata7221">
    <rdf:RDF>
      <cc:Work
         rdf:about="">
        <dc:format>image/svg+xml</dc:format>
        <dc:type
           rdf:resource="http://purl.org/dc/dcmitype/StillImage" />
        <dc:title></dc:title>
      </cc:Work>
    </rdf:RDF>
  </metadata>
  <g
     inkscape:label="Layer 1"
     inkscape:groupmode="layer"
     id="layer1"
     transform="translate(-99.751356,-142.08469)">
    <path
       style="fill:#751e7f;fill-opacity:1;fill-rule:nonzero;stroke:none;stroke-width:0.352777"
       d="m 109.47479,149.14025 c 0,0.86403 -0.69867,1.5627 -1.5627,1.5627 h -4.05003 c -0.86543,0 -1.5627,-0.69867 -1.5627,-1.5627 v -1.89756 c 0,-0.86127 0.69727,-1.56269 1.5627,-1.56269 h 4.05003 c 0.86403,0 1.5627,0.70142 1.5627,1.56269 z m -3.64077,-7.05556 c -3.35552,0 -6.082664,2.72714 -6.082664,6.08129 0,3.35139 2.727144,6.08266 6.082664,6.08266 3.35139,0 6.08129,-2.73127 6.08129,-6.08266 0,-3.35415 -2.7299,-6.08129 -6.08129,-6.08129"
       id="path4705" />
    <path
       style="fill:#751e7f;fill-opacity:1;fill-rule:nonzero;stroke:none;stroke-width:0.352777"
       d="m 105.30485,147.17241 c -0.0703,-0.0427 -0.13504,0.01 -0.13504,0.0909 v 1.81763 c 0,0.0799 0.0648,0.12954 0.13092,0.0951 l 1.61642,-0.88884 c 0.073,-0.04 0.0882,-0.14193 0.0138,-0.18465 l -1.62609,-0.93018"
       id="path4707" />
  </g>
</svg>
